<svg width="64" height="64" viewBox="0 0 64 64" fill="none" xmlns="http://www.w3.org/2000/svg">
<path d="M57.3897 32.042C57.3897 47.4104 44.9266 59.8736 29.5581 59.8736C15.5792 59.8736 4.04235 49.5999 2.0213 36.2104C1.81077 34.8631 1.72656 33.4736 1.72656 32.042C1.72656 31.621 1.72656 31.1578 1.76867 30.7368C2.44235 15.9578 14.6529 4.21045 29.6002 4.21045C38.7371 4.21045 46.8213 8.5894 51.916 15.3683C52.9687 16.7578 53.895 18.2736 54.6529 19.8315C56.3792 23.5368 57.3897 27.6631 57.3897 32.042Z" fill="url(#paint0_radial_50_2415)" stroke="#00C06D" stroke-width="1.5" stroke-miterlimit="10"/>
<path d="M14.4427 25.1368V53.2631C9.64265 49.9368 7.03212 45.8526 5.97949 43.9158V25.0947H14.4427V25.1368Z" fill="url(#paint1_linear_50_2415)"/>
<path d="M27.2844 22.1895V57.8947C25.0949 57.7263 22.737 57.2631 20.2949 56.3368C19.916 56.2105 19.5791 56.0421 19.2002 55.9158V22.2316H27.2844V22.1895Z" fill="url(#paint2_linear_50_2415)"/>
<path d="M40.4633 16.5051V55.7472C39.7476 56.0841 38.9476 56.3788 38.1476 56.6314C37.137 56.9683 35.0739 57.5999 32.2949 57.8525V16.5051H40.4633Z" fill="url(#paint3_linear_50_2415)"/>
<path d="M53.6419 10.1052V43.6631C52.5472 45.6 49.8524 49.8947 44.9261 53.2631H44.7998V10.1052H53.6419Z" fill="url(#paint4_linear_50_2415)"/>
<path opacity="0.32" d="M27.2837 22.1895H26.0205V57.3052H27.2837V22.1895Z" fill="url(#paint5_radial_50_2415)"/>
<path opacity="0.32" d="M40.4634 16.5051V55.3683C40.0423 55.5367 39.6212 55.7051 39.2002 55.8735V16.5051H40.4634Z" fill="url(#paint6_radial_50_2415)"/>
<path opacity="0.46" d="M44.7578 53.0105V10.1052H46.0631V52.0842L44.7578 53.0105Z" fill="url(#paint7_radial_50_2415)"/>
<path opacity="0.32" d="M53.6421 10.1052V43.3263C53.3473 43.8736 52.9263 44.5473 52.3789 45.3894V10.1052H53.6421Z" fill="url(#paint8_radial_50_2415)"/>
<path opacity="0.32" d="M14.4419 25.1367V52.8841C14.0208 52.5894 13.5577 52.2525 13.1787 51.9578V25.1367H14.4419Z" fill="url(#paint9_radial_50_2415)"/>
<path opacity="0.46" d="M33.5581 16.5051H32.2949V57.3051H33.5581V16.5051Z" fill="url(#paint10_radial_50_2415)"/>
<path d="M62.3583 5.55786C61.9372 9.43155 61.474 13.3052 61.053 17.1789C60.0846 16.5052 59.074 15.8315 58.1056 15.1579C56.9267 16.7158 55.7477 18.2736 54.5688 19.8315C54.274 20.2526 53.9372 20.6315 53.6425 21.0526C51.8319 23.4526 50.0635 25.8105 48.253 28.2105C43.874 27.7052 39.453 27.2 35.074 26.6526C30.6951 30.7789 26.274 34.9052 21.8951 39.0737C17.3898 37.0947 12.8425 35.1158 8.3372 33.1368C6.23194 34.1473 4.12668 35.2 1.97931 36.2105C1.76878 34.8631 1.68457 33.4737 1.68457 32.0421C1.68457 31.621 1.68457 31.1579 1.72668 30.7368C3.91615 29.5579 6.14773 28.3789 8.3372 27.2C12.4214 29.1368 16.5477 31.0315 20.674 32.9684C24.7583 29.0526 28.8846 25.1789 33.0109 21.2631C37.3898 21.6842 41.7267 22.1473 46.1056 22.5684C47.7477 20.5052 49.3898 18.4421 51.0319 16.421C51.3267 16.0842 51.5793 15.7052 51.874 15.3684C52.8425 14.1894 53.7688 13.0105 54.6951 11.7894C53.9372 11.0737 53.1372 10.3579 52.3793 9.64207C55.6635 8.2526 58.9898 6.90523 62.3583 5.55786Z" fill="url(#paint11_linear_50_2415)"/>
<path opacity="0.46" d="M20.4634 22.2737V56C20.4212 56 20.337 55.9579 20.2949 55.9579C19.916 55.8316 19.5791 55.6632 19.2002 55.5368V22.2737H20.4634Z" fill="url(#paint12_radial_50_2415)"/>
<path opacity="0.46" d="M7.19968 25.1367V45.5578C6.65231 44.7578 6.27336 44.0841 5.97863 43.5788C5.97863 43.5367 5.93652 43.5367 5.93652 43.4946V25.1367H7.19968Z" fill="url(#paint13_radial_50_2415)"/>
<path d="M54.0208 42.5684C53.6418 43.4526 53.1787 44.2947 52.6734 45.1368C52.1681 45.9789 51.6208 46.7789 51.0313 47.5368C49.8524 49.0947 48.505 50.5263 47.0313 51.8315C45.5576 53.0947 43.9155 54.2315 42.1892 55.1578C41.7681 55.3684 41.305 55.621 40.8839 55.7894C40.4629 55.9999 39.9576 56.1684 39.4945 56.3789C39.0313 56.5473 38.5681 56.7157 38.105 56.8841C37.6418 57.0526 37.1787 57.1789 36.6734 57.3052C34.7787 57.8105 32.7997 58.1052 30.8208 58.1894C28.8418 58.2736 26.8629 58.1473 24.926 57.8105C22.9892 57.4736 21.0945 56.9263 19.2418 56.1263C17.4313 55.3684 15.705 54.3999 14.105 53.2631C13.6418 52.9263 13.1787 52.5894 12.7576 52.2105C12.3366 51.8315 11.9155 51.4526 11.4945 51.0736C10.6524 50.2736 9.89446 49.4736 9.17867 48.5894C8.46288 47.7052 7.7892 46.821 7.19972 45.8526C6.90499 45.3894 6.65235 44.8841 6.35762 44.3789L5.93657 43.621C5.81025 43.3684 5.68393 43.1157 5.55762 42.8631C5.72604 43.1157 5.85235 43.3263 6.02077 43.5789L6.48393 44.2526C6.82077 44.7157 7.11551 45.1789 7.45235 45.642C8.12604 46.5262 8.84183 47.3684 9.59972 48.1684C10.3576 48.9684 11.1576 49.7263 11.9997 50.442C12.4208 50.7789 12.8418 51.1578 13.305 51.4526L14.6524 52.421C16.2524 53.4736 17.8945 54.3157 19.705 55.0315C21.4313 55.7052 23.2839 56.2105 25.1366 56.5052C26.9892 56.7999 28.8839 56.9263 30.7787 56.842C32.6734 56.7578 34.526 56.5052 36.3787 56.042C40.0418 55.1157 43.4945 53.4315 46.4839 51.0736C47.9997 49.8947 49.3471 48.5894 50.6102 47.1578C51.9155 45.7684 53.0524 44.2526 54.0208 42.5684Z" fill="#00C06D"/>
<path opacity="0.69" d="M2.02051 36.4632C4.16788 35.4526 6.35735 34.4421 8.50472 33.4316C13.01 35.4105 17.5573 37.3895 22.0626 39.3684C26.4416 35.2421 30.8626 31.1158 35.2416 26.9474C39.6205 27.4526 44.0416 27.9579 48.4205 28.5053C50.4416 25.8947 52.4205 23.2421 54.4416 20.6316" stroke="white" stroke-width="2" stroke-miterlimit="10"/>
<path d="M54.316 20.8843C54.4424 20.6737 54.6108 20.4632 54.7371 20.2948C55.9581 18.6106 57.1792 16.9685 58.4002 15.2843C59.4529 16.0843 60.5055 16.8422 61.6003 17.6422C61.9371 13.3474 62.316 9.05268 62.695 4.80005C59.2845 6.23163 55.8739 7.70531 52.4634 9.13689C53.2213 9.93689 53.9792 10.6948 54.7371 11.4948C54.6108 11.6632 54.4424 11.7895 54.2739 11.9579C53.4318 13.0527 52.5476 14.1053 51.7055 15.2C49.7687 17.6 47.8739 20.0422 45.9371 22.4422C41.7266 21.979 37.5581 21.5158 33.3476 21.0527C29.095 25.0948 24.8424 29.1369 20.5897 33.1369C16.5055 31.2 12.4634 29.3053 8.37919 27.3685C6.14761 28.5895 3.91604 29.8106 1.72656 31.0316" stroke="#06B865" stroke-width="2" stroke-miterlimit="10"/>
<defs>
<radialGradient id="paint0_radial_50_2415" cx="0" cy="0" r="1" gradientUnits="userSpaceOnUse" gradientTransform="translate(29.5235 32.0371) scale(53.7702 53.7702)">
<stop stop-color="white"/>
<stop offset="1" stop-color="#AAECCF"/>
</radialGradient>
<linearGradient id="paint1_linear_50_2415" x1="10.1909" y1="25.1231" x2="10.1909" y2="53.277" gradientUnits="userSpaceOnUse">
<stop stop-color="#01B868"/>
<stop offset="1" stop-color="#006695"/>
</linearGradient>
<linearGradient id="paint2_linear_50_2415" x1="23.2461" y1="22.1964" x2="23.2461" y2="57.8831" gradientUnits="userSpaceOnUse">
<stop stop-color="#01B868"/>
<stop offset="1" stop-color="#006695"/>
</linearGradient>
<linearGradient id="paint3_linear_50_2415" x1="36.3803" y1="16.4967" x2="36.3803" y2="57.8503" gradientUnits="userSpaceOnUse">
<stop stop-color="#01B868"/>
<stop offset="1" stop-color="#006695"/>
</linearGradient>
<linearGradient id="paint4_linear_50_2415" x1="49.2046" y1="48.5594" x2="49.2046" y2="16.8035" gradientUnits="userSpaceOnUse">
<stop stop-color="#006695"/>
<stop offset="1" stop-color="#01B868"/>
</linearGradient>
<radialGradient id="paint5_radial_50_2415" cx="0" cy="0" r="1" gradientUnits="userSpaceOnUse" gradientTransform="translate(26.6543 39.7546) scale(32.2953 23.9828)">
<stop stop-color="white"/>
<stop offset="1" stop-color="#AAECCF"/>
</radialGradient>
<radialGradient id="paint6_radial_50_2415" cx="0" cy="0" r="1" gradientUnits="userSpaceOnUse" gradientTransform="translate(39.8291 36.1881) scale(26.9007)">
<stop stop-color="white"/>
<stop offset="1" stop-color="#AAECCF"/>
</radialGradient>
<radialGradient id="paint7_radial_50_2415" cx="0" cy="0" r="1" gradientUnits="userSpaceOnUse" gradientTransform="translate(45.4105 31.5477) scale(29.2931 29.2932)">
<stop stop-color="white"/>
<stop offset="1" stop-color="#AAECCF"/>
</radialGradient>
<radialGradient id="paint8_radial_50_2415" cx="0" cy="0" r="1" gradientUnits="userSpaceOnUse" gradientTransform="translate(52.999 27.7355) scale(24.0907)">
<stop stop-color="white"/>
<stop offset="1" stop-color="#AAECCF"/>
</radialGradient>
<radialGradient id="paint9_radial_50_2415" cx="0" cy="0" r="1" gradientUnits="userSpaceOnUse" gradientTransform="translate(13.7928 38.9986) scale(18.9657 18.9657)">
<stop stop-color="white"/>
<stop offset="1" stop-color="#AAECCF"/>
</radialGradient>
<radialGradient id="paint10_radial_50_2415" cx="0" cy="0" r="1" gradientUnits="userSpaceOnUse" gradientTransform="translate(32.9315 36.9046) scale(32.2953 27.8752)">
<stop stop-color="white"/>
<stop offset="1" stop-color="#AAECCF"/>
</radialGradient>
<linearGradient id="paint11_linear_50_2415" x1="1.67741" y1="22.3043" x2="62.3393" y2="22.3043" gradientUnits="userSpaceOnUse">
<stop stop-color="#000D12"/>
<stop offset="1" stop-color="#004CAA"/>
</linearGradient>
<radialGradient id="paint12_radial_50_2415" cx="0" cy="0" r="1" gradientUnits="userSpaceOnUse" gradientTransform="translate(19.8365 39.1346) scale(23.0365)">
<stop stop-color="white"/>
<stop offset="1" stop-color="#AAECCF"/>
</radialGradient>
<radialGradient id="paint13_radial_50_2415" cx="0" cy="0" r="1" gradientUnits="userSpaceOnUse" gradientTransform="translate(6.56111 35.3288) scale(13.962)">
<stop stop-color="white"/>
<stop offset="1" stop-color="#AAECCF"/>
</radialGradient>
</defs>
</svg>
