<?xml version="1.0" encoding="utf-8"?>
<!-- Generator: Adobe Illustrator 23.0.5, SVG Export Plug-In . SVG Version: 6.00 Build 0)  -->
<svg version="1.1" id="Layer_1" xmlns="http://www.w3.org/2000/svg" xmlns:xlink="http://www.w3.org/1999/xlink" x="0px" y="0px"
	 viewBox="0 0 245.4 241.2" style="enable-background:new 0 0 245.4 241.2;" xml:space="preserve">
<style type="text/css">
	.st0{fill:url(#SVGID_1_);stroke:#00C06D;stroke-width:4;stroke-miterlimit:10;}
	.st1{fill:url(#SVGID_2_);}
	.st2{fill:url(#SVGID_3_);}
	.st3{fill:url(#SVGID_4_);}
	.st4{fill:url(#SVGID_5_);}
	.st5{opacity:0.32;fill:url(#SVGID_6_);}
	.st6{opacity:0.32;fill:url(#SVGID_7_);}
	.st7{opacity:0.46;fill:url(#SVGID_8_);}
	.st8{opacity:0.32;fill:url(#SVGID_9_);}
	.st9{opacity:0.32;fill:url(#SVGID_10_);}
	.st10{opacity:0.46;fill:url(#SVGID_11_);}
	.st11{fill:url(#SVGID_12_);}
	.st12{opacity:0.46;fill:url(#SVGID_13_);}
	.st13{opacity:0.46;fill:url(#SVGID_14_);}
	.st14{fill:#090810;}
	.st15{fill:#00C06D;}
	.st16{opacity:0.69;fill:none;stroke:#FFFFFF;stroke-width:3;stroke-miterlimit:10;}
	.st17{fill:none;stroke:#06B865;stroke-width:3;stroke-miterlimit:10;}
</style>
<g>
	<radialGradient id="SVGID_1_" cx="124.4178" cy="120.5882" r="127.7043" gradientUnits="userSpaceOnUse">
		<stop  offset="0" style="stop-color:#FFFFFF"/>
		<stop  offset="1" style="stop-color:#AAECCF"/>
	</radialGradient>
	<path class="st0" d="M190.6,120.6c0,36.5-29.6,66.1-66.1,66.1c-33.2,0-60.6-24.4-65.4-56.2c-0.5-3.2-0.7-6.5-0.7-9.9
		c0-1,0-2.1,0.1-3.1c1.6-35.1,30.6-63,66.1-63c21.7,0,40.9,10.4,53,26.5c2.5,3.3,4.7,6.9,6.5,10.6
		C188.2,100.4,190.6,110.2,190.6,120.6z"/>
	<linearGradient id="SVGID_2_" gradientUnits="userSpaceOnUse" x1="78.5021" y1="104.1673" x2="78.5021" y2="171.0329">
		<stop  offset="0" style="stop-color:#01B868"/>
		<stop  offset="1" style="stop-color:#006695"/>
	</linearGradient>
	<path class="st1" d="M88.6,104.2V171c-11.4-7.9-17.6-17.6-20.1-22.2v-44.7H88.6z"/>
	<linearGradient id="SVGID_3_" gradientUnits="userSpaceOnUse" x1="109.509" y1="97.2164" x2="109.509" y2="181.9725">
		<stop  offset="0" style="stop-color:#01B868"/>
		<stop  offset="1" style="stop-color:#006695"/>
	</linearGradient>
	<path class="st2" d="M119.1,97.2V182c-5.2-0.4-10.8-1.5-16.6-3.7c-0.9-0.3-1.7-0.7-2.6-1v-80H119.1z"/>
	<linearGradient id="SVGID_4_" gradientUnits="userSpaceOnUse" x1="140.7027" y1="83.68" x2="140.7027" y2="181.8947">
		<stop  offset="0" style="stop-color:#01B868"/>
		<stop  offset="1" style="stop-color:#006695"/>
	</linearGradient>
	<path class="st3" d="M150.4,83.7v93.2c-1.7,0.8-3.6,1.5-5.5,2.1c-2.4,0.8-7.3,2.3-13.9,2.9V83.7H150.4z"/>
	<linearGradient id="SVGID_5_" gradientUnits="userSpaceOnUse" x1="171.1615" y1="159.8286" x2="171.1615" y2="84.4085">
		<stop  offset="0" style="stop-color:#006695"/>
		<stop  offset="1" style="stop-color:#01B868"/>
	</linearGradient>
	<path class="st4" d="M181.7,68.5v79.7c-2.6,4.6-9,14.8-20.7,22.8h-0.3V68.5H181.7z"/>
	
		<radialGradient id="SVGID_6_" cx="224.4437" cy="138.9173" r="56.9592" gradientTransform="matrix(1.3466 0 0 1 -184.6306 0)" gradientUnits="userSpaceOnUse">
		<stop  offset="0" style="stop-color:#FFFFFF"/>
		<stop  offset="1" style="stop-color:#AAECCF"/>
	</radialGradient>
	<rect x="116.1" y="97.2" class="st5" width="3" height="83.4"/>
	<radialGradient id="SVGID_7_" cx="148.8937" cy="130.4471" r="63.8891" gradientUnits="userSpaceOnUse">
		<stop  offset="0" style="stop-color:#FFFFFF"/>
		<stop  offset="1" style="stop-color:#AAECCF"/>
	</radialGradient>
	<path class="st6" d="M150.4,83.7V176c-1,0.4-2,0.8-3,1.2V83.7H150.4z"/>
	<radialGradient id="SVGID_8_" cx="162.1502" cy="119.4259" r="69.5713" gradientUnits="userSpaceOnUse">
		<stop  offset="0" style="stop-color:#FFFFFF"/>
		<stop  offset="1" style="stop-color:#AAECCF"/>
	</radialGradient>
	<polygon class="st7" points="160.6,170.4 160.6,68.5 163.7,68.5 163.7,168.2 	"/>
	<radialGradient id="SVGID_9_" cx="180.1728" cy="110.3718" r="57.2154" gradientUnits="userSpaceOnUse">
		<stop  offset="0" style="stop-color:#FFFFFF"/>
		<stop  offset="1" style="stop-color:#AAECCF"/>
	</radialGradient>
	<path class="st8" d="M181.7,68.5v78.9c-0.7,1.3-1.7,2.9-3,4.9V68.5H181.7z"/>
	<radialGradient id="SVGID_10_" cx="87.0585" cy="137.1219" r="45.0435" gradientUnits="userSpaceOnUse">
		<stop  offset="0" style="stop-color:#FFFFFF"/>
		<stop  offset="1" style="stop-color:#AAECCF"/>
	</radialGradient>
	<path class="st9" d="M88.6,104.2v65.9c-1-0.7-2.1-1.5-3-2.2v-63.7H88.6z"/>
	
		<radialGradient id="SVGID_11_" cx="235.5135" cy="177.7331" r="56.9592" gradientTransform="matrix(1.3466 0 0 1.1623 -184.6306 -74.4305)" gradientUnits="userSpaceOnUse">
		<stop  offset="0" style="stop-color:#FFFFFF"/>
		<stop  offset="1" style="stop-color:#AAECCF"/>
	</radialGradient>
	<rect x="131" y="83.7" class="st10" width="3" height="96.9"/>
	<linearGradient id="SVGID_12_" gradientUnits="userSpaceOnUse" x1="58.283" y1="97.4729" x2="202.3551" y2="97.4729">
		<stop  offset="0" style="stop-color:#000D12"/>
		<stop  offset="1" style="stop-color:#004CAA"/>
	</linearGradient>
	<path class="st11" d="M202.4,57.7c-1,9.2-2.1,18.4-3.1,27.6c-2.3-1.6-4.7-3.2-7-4.8c-2.8,3.7-5.6,7.4-8.4,11.1
		c-0.7,1-1.5,1.9-2.2,2.9c-4.3,5.7-8.5,11.3-12.8,17c-10.4-1.2-20.9-2.4-31.3-3.7c-10.4,9.8-20.9,19.6-31.3,29.5
		c-10.7-4.7-21.5-9.4-32.2-14.1c-5,2.4-10,4.9-15.1,7.3c-0.5-3.2-0.7-6.5-0.7-9.9c0-1,0-2.1,0.1-3.1c5.2-2.8,10.5-5.6,15.7-8.4
		c9.7,4.6,19.5,9.1,29.3,13.7c9.7-9.3,19.5-18.5,29.3-27.8c10.4,1,20.7,2.1,31.1,3.1c3.9-4.9,7.8-9.8,11.7-14.6
		c0.7-0.8,1.3-1.7,2-2.5c2.3-2.8,4.5-5.6,6.7-8.5c-1.8-1.7-3.7-3.4-5.5-5.1C186.5,64.1,194.4,60.9,202.4,57.7z"/>
	<radialGradient id="SVGID_13_" cx="101.4113" cy="137.4446" r="54.7117" gradientUnits="userSpaceOnUse">
		<stop  offset="0" style="stop-color:#FFFFFF"/>
		<stop  offset="1" style="stop-color:#AAECCF"/>
	</radialGradient>
	<path class="st12" d="M102.9,97.4v80.1c-0.1,0-0.3-0.1-0.4-0.1c-0.9-0.3-1.7-0.7-2.6-1c0,0,0,0,0,0V97.4H102.9z"/>
	<radialGradient id="SVGID_14_" cx="69.8834" cy="128.4061" r="33.1597" gradientUnits="userSpaceOnUse">
		<stop  offset="0" style="stop-color:#FFFFFF"/>
		<stop  offset="1" style="stop-color:#AAECCF"/>
	</radialGradient>
	<path class="st13" d="M71.4,104.2v48.5c-1.3-1.9-2.2-3.5-2.9-4.7c0-0.1-0.1-0.1-0.1-0.2v-43.6H71.4z"/>
	<path class="st15" d="M182.6,145.6c-0.9,2.1-2,4.1-3.2,6.1c-1.2,2-2.5,3.9-3.9,5.7c-2.8,3.7-6,7.1-9.5,10.2
		c-3.5,3-7.4,5.7-11.5,7.9c-1,0.5-2.1,1.1-3.1,1.5c-1,0.5-2.2,0.9-3.3,1.4c-1.1,0.4-2.2,0.8-3.3,1.2c-1.1,0.4-2.2,0.7-3.4,1
		c-4.5,1.2-9.2,1.9-13.9,2.1c-4.7,0.2-9.4-0.1-14-0.9c-4.6-0.8-9.1-2.1-13.5-4c-4.3-1.8-8.4-4.1-12.2-6.8l0.1,0.1l0,0l-0.1-0.1
		c-1.1-0.8-2.2-1.6-3.2-2.5c-1-0.9-2-1.8-3-2.7c-2-1.9-3.8-3.8-5.5-5.9c-1.7-2.1-3.3-4.2-4.7-6.5c-0.7-1.1-1.3-2.3-2-3.5l-1-1.8
		c-0.3-0.6-0.6-1.2-0.9-1.8c0.4,0.6,0.7,1.1,1.1,1.7l1.1,1.6c0.8,1.1,1.5,2.2,2.3,3.3c1.6,2.1,3.3,4.1,5.1,6
		c1.8,1.9,3.7,3.7,5.7,5.4c1,0.8,2,1.7,3.1,2.4l3.2,2.3l-0.1-0.1l0,0l0.1,0.1c3.8,2.5,7.7,4.5,12,6.2c4.1,1.6,8.5,2.8,12.9,3.5
		c4.4,0.7,8.9,1,13.4,0.8c4.5-0.2,8.9-0.8,13.3-1.9c8.7-2.2,16.9-6.2,24-11.8c3.6-2.8,6.8-5.9,9.8-9.3
		C177.6,153.2,180.3,149.6,182.6,145.6z"/>
	<path class="st16" d="M59.1,131.1c5.1-2.4,10.3-4.8,15.4-7.2c10.7,4.7,21.5,9.4,32.2,14.1c10.4-9.8,20.9-19.6,31.3-29.5
		c10.4,1.2,20.9,2.4,31.3,3.7c4.8-6.2,9.5-12.5,14.3-18.7"/>
	<path class="st17" d="M183.3,94.1c0.3-0.5,0.7-1,1-1.4c2.9-4,5.8-7.9,8.7-11.9c2.5,1.9,5,3.7,7.6,5.6c0.8-10.2,1.7-20.4,2.6-30.5
		c-8.1,3.4-16.2,6.9-24.3,10.3c1.8,1.9,3.6,3.7,5.4,5.6c-0.3,0.4-0.7,0.7-1.1,1.1c-2,2.6-4.1,5.1-6.1,7.7
		c-4.6,5.7-9.1,11.5-13.7,17.2c-10-1.1-19.9-2.2-29.9-3.3c-10.1,9.6-20.2,19.2-30.3,28.7c-9.7-4.6-19.3-9.1-29-13.7
		c-5.3,2.9-10.6,5.8-15.8,8.7"/>
</g>
</svg>
