<svg width="20" height="20" viewBox="0 0 20 20" fill="none" xmlns="http://www.w3.org/2000/svg">
<path d="M17.9338 10.0138C17.9338 14.8164 14.0391 18.7111 9.23643 18.7111C4.86801 18.7111 1.26275 15.5006 0.631167 11.3164C0.565378 10.8954 0.539062 10.4611 0.539062 10.0138C0.539062 9.8822 0.539062 9.73746 0.55222 9.60588C0.762746 4.98746 4.57854 1.31641 9.24959 1.31641C12.1049 1.31641 14.6312 2.68483 16.2233 4.80325C16.5522 5.23746 16.8417 5.71114 17.0785 6.19799C17.618 7.35588 17.9338 8.64535 17.9338 10.0138Z" fill="url(#paint0_radial_4897_142345)" stroke="#00C06D" stroke-width="0.5" stroke-miterlimit="10"/>
<path d="M4.51192 7.85691V16.6464C3.01192 15.6069 2.19613 14.3306 1.86719 13.7253V7.84375H4.51192V7.85691Z" fill="url(#paint1_linear_4897_142345)"/>
<path d="M8.52632 6.93359V18.0915C7.8421 18.0389 7.10526 17.8941 6.34211 17.6046C6.22368 17.5652 6.11842 17.5125 6 17.4731V6.94675H8.52632V6.93359Z" fill="url(#paint2_linear_4897_142345)"/>
<path d="M12.6464 5.15625V17.4194C12.4227 17.5247 12.1727 17.6168 11.9227 17.6957C11.6069 17.801 10.9622 17.9984 10.0938 18.0773V5.15625H12.6464Z" fill="url(#paint3_linear_4897_142345)"/>
<path d="M16.7632 3.15625V13.6431C16.4211 14.2484 15.5789 15.5905 14.0395 16.6431H14V3.15625H16.7632Z" fill="url(#paint4_linear_4897_142345)"/>
<path opacity="0.32" d="M8.52755 6.93359H8.13281V17.9073H8.52755V6.93359Z" fill="url(#paint5_radial_4897_142345)"/>
<path opacity="0.32" d="M12.6447 5.15625V17.301C12.5132 17.3536 12.3816 17.4063 12.25 17.4589V5.15625H12.6447Z" fill="url(#paint6_radial_4897_142345)"/>
<path opacity="0.46" d="M13.9883 16.5641V3.15625H14.3962V16.2747L13.9883 16.5641Z" fill="url(#paint7_radial_4897_142345)"/>
<path opacity="0.32" d="M16.7619 3.15625V13.5378C16.6698 13.7089 16.5382 13.9194 16.3672 14.1826V3.15625H16.7619Z" fill="url(#paint8_radial_4897_142345)"/>
<path opacity="0.32" d="M4.51192 7.85547V16.5265C4.38035 16.4344 4.23561 16.3292 4.11719 16.237V7.85547H4.51192Z" fill="url(#paint9_radial_4897_142345)"/>
<path opacity="0.46" d="M10.4885 5.15625H10.0938V17.9063H10.4885V5.15625Z" fill="url(#paint10_radial_4897_142345)"/>
<path d="M19.4879 1.73828C19.3563 2.94881 19.2116 4.15933 19.08 5.36986C18.7773 5.15933 18.4616 4.94881 18.1589 4.73828C17.7905 5.22512 17.4221 5.71197 17.0537 6.19881C16.9616 6.33039 16.8563 6.44881 16.7642 6.58039C16.1984 7.33039 15.6458 8.06723 15.08 8.81723C13.7116 8.65933 12.33 8.50144 10.9616 8.33039C9.59313 9.61986 8.21156 10.9093 6.84313 12.212C5.43524 11.5935 4.01419 10.9751 2.60629 10.3567C1.9484 10.6725 1.2905 11.0014 0.619449 11.3172C0.55366 10.8962 0.527344 10.462 0.527344 10.0146C0.527344 9.88302 0.527344 9.73828 0.540502 9.6067C1.22471 9.23828 1.92208 8.86986 2.60629 8.50144C3.88261 9.1067 5.17208 9.69881 6.46155 10.3041C7.73787 9.08039 9.02734 7.86986 10.3168 6.64618C11.6852 6.77776 13.0405 6.92249 14.4089 7.05407C14.9221 6.40933 15.4352 5.7646 15.9484 5.13302C16.0405 5.02775 16.1194 4.90933 16.2116 4.80407C16.5142 4.43565 16.8037 4.06723 17.0931 3.68565C16.8563 3.46197 16.6063 3.23828 16.3694 3.0146C17.3958 2.58039 18.4352 2.15933 19.4879 1.73828Z" fill="url(#paint11_linear_4897_142345)"/>
<path opacity="0.46" d="M6.39474 6.96094V17.5004C6.38158 17.5004 6.35526 17.4873 6.34211 17.4873C6.22368 17.4478 6.11842 17.3951 6 17.3557V6.96094H6.39474Z" fill="url(#paint12_radial_4897_142345)"/>
<path opacity="0.46" d="M2.25021 7.85547V14.237C2.07915 13.987 1.96073 13.7765 1.86863 13.6186C1.86863 13.6055 1.85547 13.6055 1.85547 13.5923V7.85547H2.25021Z" fill="url(#paint13_radial_4897_142345)"/>
<path d="M16.883 13.3008C16.7646 13.5771 16.6199 13.8403 16.462 14.1034C16.3041 14.3666 16.133 14.6166 15.9488 14.8534C15.5804 15.3403 15.1593 15.7876 14.6988 16.1955C14.2383 16.5903 13.7251 16.9455 13.1857 17.235C13.0541 17.3008 12.9093 17.3797 12.7778 17.4324C12.6462 17.4981 12.4883 17.5508 12.3435 17.6166C12.1988 17.6692 12.0541 17.7218 11.9093 17.7745C11.7646 17.8271 11.6199 17.8666 11.462 17.906C10.8699 18.0639 10.2514 18.156 9.63302 18.1824C9.0146 18.2087 8.39618 18.1692 7.79091 18.0639C7.18565 17.9587 6.59354 17.7876 6.0146 17.5376C5.44881 17.3008 4.90933 16.9981 4.40933 16.6429C4.2646 16.5376 4.11986 16.4324 3.98828 16.3139C3.8567 16.1955 3.72512 16.0771 3.59354 15.9587C3.33039 15.7087 3.09354 15.4587 2.86986 15.1824C2.64618 14.906 2.43565 14.6297 2.25144 14.3271C2.15933 14.1824 2.08039 14.0245 1.98828 13.8666L1.8567 13.6297C1.81723 13.5508 1.77775 13.4718 1.73828 13.3929C1.79091 13.4718 1.83039 13.5376 1.88302 13.6166L2.02775 13.8271C2.13302 13.9718 2.22512 14.1166 2.33039 14.2613C2.54091 14.5376 2.7646 14.8008 3.00144 15.0508C3.23828 15.3008 3.48828 15.5376 3.75144 15.7613C3.88302 15.8666 4.0146 15.985 4.15933 16.0771L4.58039 16.3797C5.08039 16.7087 5.59354 16.9718 6.15933 17.1955C6.69881 17.406 7.27776 17.5639 7.8567 17.656C8.43565 17.7481 9.02776 17.7876 9.61986 17.7613C10.212 17.735 10.7909 17.656 11.3699 17.5113C12.5146 17.2218 13.5935 16.6955 14.5278 15.9587C15.0014 15.5903 15.4225 15.1824 15.8172 14.735C16.2251 14.3008 16.5804 13.8271 16.883 13.3008Z" fill="#00C06D"/>
<path opacity="0.69" d="M0.632812 11.3966C1.30387 11.0808 1.98808 10.765 2.65913 10.4492C4.06702 11.0676 5.48808 11.6861 6.89597 12.3045C8.26439 11.015 9.64597 9.72553 11.0144 8.4229C12.3828 8.5808 13.7644 8.73869 15.1328 8.90974C15.7644 8.09396 16.3828 7.26501 17.0144 6.44922" stroke="white" stroke-width="0.5" stroke-miterlimit="10"/>
<path d="M16.9733 6.52632C17.0127 6.46053 17.0654 6.39474 17.1049 6.3421C17.4864 5.81579 17.868 5.30263 18.2496 4.77632C18.5785 5.02632 18.9075 5.26316 19.2496 5.51316C19.3549 4.17105 19.4733 2.82895 19.5917 1.5C18.5259 1.94737 17.4601 2.40789 16.3943 2.85526C16.6312 3.10526 16.868 3.34211 17.1049 3.59211C17.0654 3.64474 17.0127 3.68421 16.9601 3.73684C16.697 4.07895 16.4206 4.40789 16.1575 4.75C15.5522 5.5 14.9601 6.26316 14.3548 7.01316C13.0391 6.86842 11.7364 6.72368 10.4206 6.57895C9.09169 7.84211 7.76275 9.10526 6.4338 10.3553C5.15748 9.75 3.89432 9.15789 2.61801 8.55263C1.92064 8.93421 1.22327 9.31579 0.539062 9.69737" stroke="#06B865" stroke-width="0.5" stroke-miterlimit="10"/>
<defs>
<radialGradient id="paint0_radial_4897_142345" cx="0" cy="0" r="1" gradientUnits="userSpaceOnUse" gradientTransform="translate(9.22562 10.0122) scale(16.8032)">
<stop stop-color="white"/>
<stop offset="1" stop-color="#AAECCF"/>
</radialGradient>
<linearGradient id="paint1_linear_4897_142345" x1="3.18325" y1="7.85261" x2="3.18325" y2="16.6507" gradientUnits="userSpaceOnUse">
<stop stop-color="#01B868"/>
<stop offset="1" stop-color="#006695"/>
</linearGradient>
<linearGradient id="paint2_linear_4897_142345" x1="7.26434" y1="6.93575" x2="7.26434" y2="18.0879" gradientUnits="userSpaceOnUse">
<stop stop-color="#01B868"/>
<stop offset="1" stop-color="#006695"/>
</linearGradient>
<linearGradient id="paint3_linear_4897_142345" x1="11.3704" y1="5.15362" x2="11.3704" y2="18.0766" gradientUnits="userSpaceOnUse">
<stop stop-color="#01B868"/>
<stop offset="1" stop-color="#006695"/>
</linearGradient>
<linearGradient id="paint4_linear_4897_142345" x1="15.3765" y1="15.1732" x2="15.3765" y2="5.24947" gradientUnits="userSpaceOnUse">
<stop stop-color="#006695"/>
<stop offset="1" stop-color="#01B868"/>
</linearGradient>
<radialGradient id="paint5_radial_4897_142345" cx="0" cy="0" r="1" gradientUnits="userSpaceOnUse" gradientTransform="translate(8.33088 12.4227) scale(10.0923 7.49463)">
<stop stop-color="white"/>
<stop offset="1" stop-color="#AAECCF"/>
</radialGradient>
<radialGradient id="paint6_radial_4897_142345" cx="0" cy="0" r="1" gradientUnits="userSpaceOnUse" gradientTransform="translate(12.4465 11.3072) scale(8.40646)">
<stop stop-color="white"/>
<stop offset="1" stop-color="#AAECCF"/>
</radialGradient>
<radialGradient id="paint7_radial_4897_142345" cx="0" cy="0" r="1" gradientUnits="userSpaceOnUse" gradientTransform="translate(14.1923 9.85703) scale(9.15409 9.15412)">
<stop stop-color="white"/>
<stop offset="1" stop-color="#AAECCF"/>
</radialGradient>
<radialGradient id="paint8_radial_4897_142345" cx="0" cy="0" r="1" gradientUnits="userSpaceOnUse" gradientTransform="translate(16.561 8.6657) scale(7.52834)">
<stop stop-color="white"/>
<stop offset="1" stop-color="#AAECCF"/>
</radialGradient>
<radialGradient id="paint9_radial_4897_142345" cx="0" cy="0" r="1" gradientUnits="userSpaceOnUse" gradientTransform="translate(4.3091 12.1873) scale(5.92678)">
<stop stop-color="white"/>
<stop offset="1" stop-color="#AAECCF"/>
</radialGradient>
<radialGradient id="paint10_radial_4897_142345" cx="0" cy="0" r="1" gradientUnits="userSpaceOnUse" gradientTransform="translate(10.2927 11.5311) scale(10.0923 8.71101)">
<stop stop-color="white"/>
<stop offset="1" stop-color="#AAECCF"/>
</radialGradient>
<linearGradient id="paint11_linear_4897_142345" x1="0.525107" y1="6.97156" x2="19.482" y2="6.97156" gradientUnits="userSpaceOnUse">
<stop stop-color="#000D12"/>
<stop offset="1" stop-color="#004CAA"/>
</linearGradient>
<radialGradient id="paint12_radial_4897_142345" cx="0" cy="0" r="1" gradientUnits="userSpaceOnUse" gradientTransform="translate(6.19886 12.23) scale(7.19891)">
<stop stop-color="white"/>
<stop offset="1" stop-color="#AAECCF"/>
</radialGradient>
<radialGradient id="paint13_radial_4897_142345" cx="0" cy="0" r="1" gradientUnits="userSpaceOnUse" gradientTransform="translate(2.05065 11.0405) scale(4.36312)">
<stop stop-color="white"/>
<stop offset="1" stop-color="#AAECCF"/>
</radialGradient>
</defs>
</svg>
