<svg width="713" height="203" viewBox="0 0 713 203" fill="none" xmlns="http://www.w3.org/2000/svg">
<path d="M134.236 95.9999C134.236 118.861 115.696 137.4 92.8356 137.4C72.0416 137.4 54.8803 122.118 51.874 102.201C51.5608 100.196 51.4355 98.1294 51.4355 95.9999C51.4355 95.3736 51.4355 94.6846 51.4982 94.0583C52.5003 72.0743 70.6637 54.5999 92.8982 54.5999C106.489 54.5999 118.515 61.1136 126.093 71.1975C127.659 73.2643 129.037 75.5191 130.165 77.8365C132.732 83.3481 134.236 89.4861 134.236 95.9999Z" fill="url(#paint0_radial_2665_107580)" stroke="#00C06D" stroke-width="4" stroke-miterlimit="10"/>
<path d="M70.3508 85.7282V127.567C63.2107 122.619 59.3275 116.543 57.7617 113.662V85.6655H70.3508V85.7282Z" fill="url(#paint1_linear_2665_107580)"/>
<path d="M89.4532 81.3438V134.456C86.1963 134.206 82.6889 133.517 79.0562 132.139C78.4925 131.951 77.9914 131.7 77.4277 131.512V81.4064H89.4532V81.3438Z" fill="url(#paint2_linear_2665_107580)"/>
<path d="M109.058 72.8884V131.262C107.993 131.763 106.803 132.201 105.613 132.577C104.11 133.078 101.041 134.018 96.9072 134.393V72.8884H109.058Z" fill="url(#paint3_linear_2665_107580)"/>
<path d="M128.662 63.3684V113.286C127.033 116.168 123.025 122.556 115.697 127.567H115.509V63.3684H128.662Z" fill="url(#paint4_linear_2665_107580)"/>
<path opacity="0.32" d="M89.4542 81.3438H87.5752V133.579H89.4542V81.3438Z" fill="url(#paint5_radial_2665_107580)"/>
<path opacity="0.32" d="M109.057 72.8884V130.698C108.43 130.949 107.804 131.199 107.178 131.45V72.8884H109.057Z" fill="url(#paint6_radial_2665_107580)"/>
<path opacity="0.46" d="M115.446 127.191V63.3684H117.388V125.813L115.446 127.191Z" fill="url(#paint7_radial_2665_107580)"/>
<path opacity="0.32" d="M128.662 63.3684V112.785C128.224 113.6 127.597 114.602 126.783 115.854V63.3684H128.662Z" fill="url(#paint8_radial_2665_107580)"/>
<path opacity="0.32" d="M70.3516 85.728V127.003C69.7253 126.564 69.0363 126.063 68.4727 125.625V85.728H70.3516Z" fill="url(#paint9_radial_2665_107580)"/>
<path opacity="0.46" d="M98.7862 72.8884H96.9072V133.579H98.7862V72.8884Z" fill="url(#paint10_radial_2665_107580)"/>
<path d="M141.626 56.604C141 62.3662 140.311 68.1284 139.685 73.8906C138.244 72.8884 136.741 71.8863 135.301 70.8842C133.547 73.2016 131.793 75.519 130.039 77.8364C129.601 78.4627 129.1 79.0264 128.661 79.6527C125.968 83.2228 123.338 86.7302 120.645 90.3003C114.131 89.5487 107.554 88.7971 101.041 87.9829C94.5268 94.1208 87.9504 100.259 81.4366 106.459C74.735 103.516 67.9706 100.572 61.269 97.6283C58.1374 99.1314 55.0057 100.697 51.8115 102.2C51.4983 100.196 51.373 98.1293 51.373 95.9998C51.373 95.3735 51.373 94.6845 51.4357 94.0582C54.6926 92.3045 58.0121 90.5508 61.269 88.7971C67.3443 91.6782 73.4823 94.4966 79.6203 97.3777C85.6956 91.5529 91.8336 85.7907 97.9716 79.9659C104.485 80.5922 110.937 81.2812 117.45 81.9075C119.893 78.8385 122.336 75.7695 124.778 72.7632C125.217 72.2621 125.592 71.6984 126.031 71.1974C127.471 69.4437 128.849 67.6899 130.227 65.8736C129.1 64.8089 127.91 63.7441 126.783 62.6794C131.668 60.6125 136.616 58.6082 141.626 56.604Z" fill="url(#paint11_linear_2665_107580)"/>
<path opacity="0.46" d="M79.3067 81.4692V131.638C79.2441 131.638 79.1188 131.575 79.0562 131.575C78.4925 131.387 77.9914 131.137 77.4277 130.949V81.4692H79.3067Z" fill="url(#paint12_radial_2665_107580)"/>
<path opacity="0.46" d="M59.5782 85.728V116.105C58.764 114.915 58.2003 113.913 57.7619 113.161C57.7619 113.098 57.6992 113.098 57.6992 113.036V85.728H59.5782Z" fill="url(#paint13_radial_2665_107580)"/>
<path d="M129.225 111.658C128.661 112.973 127.972 114.226 127.22 115.479C126.469 116.731 125.655 117.921 124.778 119.049C123.024 121.366 121.02 123.495 118.828 125.437C116.636 127.316 114.193 129.007 111.625 130.385C110.999 130.698 110.31 131.074 109.683 131.325C109.057 131.638 108.305 131.888 107.617 132.201C106.928 132.452 106.239 132.702 105.55 132.953C104.861 133.204 104.172 133.391 103.42 133.579C100.602 134.331 97.658 134.769 94.7142 134.895C91.7705 135.02 88.8268 134.832 85.9457 134.331C83.0646 133.83 80.2461 133.016 77.4903 131.826C74.7971 130.698 72.2292 129.258 69.8492 127.567C69.1602 127.066 68.4712 126.564 67.8449 126.001C67.2186 125.437 66.5923 124.873 65.9659 124.31C64.7133 123.12 63.5859 121.93 62.5212 120.614C61.4564 119.299 60.4543 117.984 59.5774 116.543C59.139 115.854 58.7632 115.103 58.3248 114.351L57.6985 113.224C57.5106 112.848 57.3227 112.472 57.1348 112.096C57.3853 112.472 57.5732 112.785 57.8237 113.161L58.5127 114.163C59.0137 114.852 59.4522 115.541 59.9532 116.23C60.9553 117.545 62.0201 118.798 63.1475 119.988C64.2749 121.178 65.4649 122.305 66.7175 123.37C67.3439 123.871 67.9702 124.435 68.6591 124.873L70.6634 126.314C73.0434 127.88 75.4861 129.132 78.1793 130.197C80.7472 131.199 83.503 131.951 86.2589 132.389C89.0147 132.828 91.8331 133.016 94.6516 132.89C97.4701 132.765 100.226 132.389 102.982 131.7C108.431 130.322 113.567 127.817 118.014 124.31C120.268 122.556 122.273 120.614 124.151 118.485C126.093 116.418 127.784 114.163 129.225 111.658Z" fill="#00C06D"/>
<path opacity="0.69" d="M51.874 102.576C55.0683 101.073 58.3252 99.5701 61.5194 98.0669C68.2211 101.011 74.9854 103.954 81.6871 106.898C88.2008 100.76 94.7773 94.6221 101.291 88.4215C107.805 89.1731 114.381 89.9247 120.895 90.7389C123.901 86.8557 126.845 82.9098 129.851 79.0266" stroke="white" stroke-width="3" stroke-miterlimit="10"/>
<path d="M129.663 79.4024C129.851 79.0892 130.102 78.7761 130.29 78.5255C132.106 76.0202 133.922 73.5776 135.739 71.0723C137.305 72.2623 138.87 73.3897 140.499 74.5797C141 68.1912 141.564 61.8027 142.127 55.4768C137.054 57.6063 131.981 59.7984 126.908 61.9279C128.035 63.118 129.162 64.2454 130.29 65.4354C130.102 65.6859 129.851 65.8738 129.601 66.1243C128.348 67.7528 127.033 69.3186 125.78 70.947C122.899 74.5171 120.081 78.1498 117.2 81.7198C110.936 81.0308 104.736 80.3419 98.4725 79.6529C92.1466 85.6656 85.8208 91.6784 79.4949 97.6284C73.4195 94.7473 67.4068 91.9289 61.3315 89.0478C58.012 90.8641 54.6924 92.6805 51.4355 94.4968" stroke="#06B865" stroke-width="3" stroke-miterlimit="10"/>
<path d="M199.749 73.072V81.84H181.445V91.312H195.141V99.824H181.445V118H170.501V73.072H199.749ZM211.005 78.576C209.085 78.576 207.507 78.0213 206.269 76.912C205.075 75.76 204.477 74.352 204.477 72.688C204.477 70.9813 205.075 69.5733 206.269 68.464C207.507 67.312 209.085 66.736 211.005 66.736C212.883 66.736 214.419 67.312 215.613 68.464C216.851 69.5733 217.469 70.9813 217.469 72.688C217.469 74.352 216.851 75.76 215.613 76.912C214.419 78.0213 212.883 78.576 211.005 78.576ZM216.445 82.288V118H205.501V82.288H216.445ZM246.136 81.904C250.318 81.904 253.646 83.2693 256.12 86C258.638 88.688 259.896 92.4 259.896 97.136V118H249.016V98.608C249.016 96.2187 248.398 94.3627 247.16 93.04C245.923 91.7173 244.259 91.056 242.168 91.056C240.078 91.056 238.414 91.7173 237.176 93.04C235.939 94.3627 235.32 96.2187 235.32 98.608V118H224.376V82.288H235.32V87.024C236.43 85.4453 237.923 84.208 239.8 83.312C241.678 82.3733 243.79 81.904 246.136 81.904ZM265.325 100.08C265.325 96.4107 266.008 93.1893 267.373 90.416C268.781 87.6427 270.68 85.5093 273.069 84.016C275.459 82.5227 278.125 81.776 281.069 81.776C283.587 81.776 285.784 82.288 287.661 83.312C289.581 84.336 291.053 85.68 292.077 87.344V82.288H303.021V118H292.077V112.944C291.011 114.608 289.517 115.952 287.597 116.976C285.72 118 283.523 118.512 281.005 118.512C278.104 118.512 275.459 117.765 273.069 116.272C270.68 114.736 268.781 112.581 267.373 109.808C266.008 106.992 265.325 103.749 265.325 100.08ZM292.077 100.144C292.077 97.4133 291.309 95.2587 289.773 93.68C288.28 92.1013 286.445 91.312 284.269 91.312C282.093 91.312 280.237 92.1013 278.701 93.68C277.208 95.216 276.461 97.3493 276.461 100.08C276.461 102.811 277.208 104.987 278.701 106.608C280.237 108.187 282.093 108.976 284.269 108.976C286.445 108.976 288.28 108.187 289.773 106.608C291.309 105.029 292.077 102.875 292.077 100.144ZM332.699 81.904C336.88 81.904 340.208 83.2693 342.683 86C345.2 88.688 346.459 92.4 346.459 97.136V118H335.579V98.608C335.579 96.2187 334.96 94.3627 333.723 93.04C332.485 91.7173 330.821 91.056 328.731 91.056C326.64 91.056 324.976 91.7173 323.739 93.04C322.501 94.3627 321.883 96.2187 321.883 98.608V118H310.939V82.288H321.883V87.024C322.992 85.4453 324.485 84.208 326.363 83.312C328.24 82.3733 330.352 81.904 332.699 81.904ZM351.888 100.144C351.888 96.432 352.634 93.1893 354.128 90.416C355.664 87.6427 357.776 85.5093 360.464 84.016C363.194 82.5227 366.309 81.776 369.808 81.776C374.288 81.776 378.021 82.9493 381.008 85.296C384.037 87.6427 386.021 90.9493 386.96 95.216H375.312C374.33 92.4853 372.432 91.12 369.616 91.12C367.61 91.12 366.01 91.9093 364.816 93.488C363.621 95.024 363.024 97.2427 363.024 100.144C363.024 103.045 363.621 105.285 364.816 106.864C366.01 108.4 367.61 109.168 369.616 109.168C372.432 109.168 374.33 107.803 375.312 105.072H386.96C386.021 109.253 384.037 112.539 381.008 114.928C377.978 117.317 374.245 118.512 369.808 118.512C366.309 118.512 363.194 117.765 360.464 116.272C357.776 114.779 355.664 112.645 354.128 109.872C352.634 107.099 351.888 103.856 351.888 100.144ZM426.478 99.568C426.478 100.592 426.414 101.659 426.286 102.768H401.518C401.688 104.987 402.392 106.693 403.63 107.888C404.91 109.04 406.467 109.616 408.302 109.616C411.032 109.616 412.931 108.464 413.998 106.16H425.646C425.048 108.507 423.96 110.619 422.382 112.496C420.846 114.373 418.904 115.845 416.558 116.912C414.211 117.979 411.587 118.512 408.686 118.512C405.187 118.512 402.072 117.765 399.342 116.272C396.611 114.779 394.478 112.645 392.942 109.872C391.406 107.099 390.638 103.856 390.638 100.144C390.638 96.432 391.384 93.1893 392.878 90.416C394.414 87.6427 396.547 85.5093 399.278 84.016C402.008 82.5227 405.144 81.776 408.686 81.776C412.142 81.776 415.214 82.5013 417.902 83.952C420.59 85.4027 422.68 87.472 424.174 90.16C425.71 92.848 426.478 95.984 426.478 99.568ZM415.278 96.688C415.278 94.8107 414.638 93.3173 413.358 92.208C412.078 91.0987 410.478 90.544 408.558 90.544C406.723 90.544 405.166 91.0773 403.886 92.144C402.648 93.2107 401.88 94.7253 401.582 96.688H415.278ZM448.507 118.448C445.222 118.448 442.278 117.915 439.675 116.848C437.073 115.781 434.982 114.203 433.403 112.112C431.867 110.021 431.057 107.504 430.971 104.56H442.619C442.79 106.224 443.366 107.504 444.347 108.4C445.329 109.253 446.609 109.68 448.187 109.68C449.809 109.68 451.089 109.317 452.027 108.592C452.966 107.824 453.435 106.779 453.435 105.456C453.435 104.347 453.051 103.429 452.283 102.704C451.558 101.979 450.641 101.381 449.531 100.912C448.465 100.443 446.929 99.9093 444.923 99.312C442.022 98.416 439.654 97.52 437.819 96.624C435.985 95.728 434.406 94.4053 433.083 92.656C431.761 90.9067 431.099 88.624 431.099 85.808C431.099 81.6267 432.614 78.3627 435.643 76.016C438.673 73.6267 442.619 72.432 447.483 72.432C452.433 72.432 456.422 73.6267 459.451 76.016C462.481 78.3627 464.102 81.648 464.315 85.872H452.475C452.39 84.4213 451.857 83.2907 450.875 82.48C449.894 81.6267 448.635 81.2 447.099 81.2C445.777 81.2 444.71 81.5627 443.899 82.288C443.089 82.9707 442.683 83.9733 442.683 85.296C442.683 86.7467 443.366 87.8773 444.731 88.688C446.097 89.4987 448.23 90.3733 451.131 91.312C454.033 92.2933 456.379 93.232 458.171 94.128C460.006 95.024 461.585 96.3253 462.907 98.032C464.23 99.7387 464.891 101.936 464.891 104.624C464.891 107.184 464.23 109.509 462.907 111.6C461.627 113.691 459.75 115.355 457.275 116.592C454.801 117.829 451.878 118.448 448.507 118.448ZM493.578 81.904C497.674 81.904 500.96 83.2693 503.434 86C505.909 88.688 507.146 92.4 507.146 97.136V118H496.266V98.608C496.266 96.2187 495.648 94.3627 494.41 93.04C493.173 91.7173 491.509 91.056 489.418 91.056C487.328 91.056 485.664 91.7173 484.426 93.04C483.189 94.3627 482.57 96.2187 482.57 98.608V118H471.626V70.64H482.57V87.088C483.68 85.5093 485.194 84.2507 487.114 83.312C489.034 82.3733 491.189 81.904 493.578 81.904ZM512.575 100.08C512.575 96.4107 513.258 93.1893 514.623 90.416C516.031 87.6427 517.93 85.5093 520.319 84.016C522.709 82.5227 525.375 81.776 528.319 81.776C530.837 81.776 533.034 82.288 534.911 83.312C536.831 84.336 538.303 85.68 539.327 87.344V82.288H550.271V118H539.327V112.944C538.261 114.608 536.767 115.952 534.847 116.976C532.97 118 530.773 118.512 528.255 118.512C525.354 118.512 522.709 117.765 520.319 116.272C517.93 114.736 516.031 112.581 514.623 109.808C513.258 106.992 512.575 103.749 512.575 100.08ZM539.327 100.144C539.327 97.4133 538.559 95.2587 537.023 93.68C535.53 92.1013 533.695 91.312 531.519 91.312C529.343 91.312 527.487 92.1013 525.951 93.68C524.458 95.216 523.711 97.3493 523.711 100.08C523.711 102.811 524.458 104.987 525.951 106.608C527.487 108.187 529.343 108.976 531.519 108.976C533.695 108.976 535.53 108.187 537.023 106.608C538.559 105.029 539.327 102.875 539.327 100.144ZM572.717 118.512C569.602 118.512 566.829 117.979 564.397 116.912C561.965 115.845 560.045 114.395 558.637 112.56C557.229 110.683 556.439 108.592 556.269 106.288H567.085C567.213 107.525 567.789 108.528 568.813 109.296C569.837 110.064 571.095 110.448 572.589 110.448C573.954 110.448 574.999 110.192 575.725 109.68C576.493 109.125 576.877 108.421 576.877 107.568C576.877 106.544 576.343 105.797 575.277 105.328C574.21 104.816 572.482 104.261 570.093 103.664C567.533 103.067 565.399 102.448 563.693 101.808C561.986 101.125 560.514 100.08 559.277 98.672C558.039 97.2213 557.421 95.28 557.421 92.848C557.421 90.8 557.975 88.944 559.085 87.28C560.237 85.5733 561.901 84.2293 564.077 83.248C566.295 82.2667 568.919 81.776 571.949 81.776C576.429 81.776 579.949 82.8853 582.509 85.104C585.111 87.3227 586.605 90.2667 586.989 93.936H576.877C576.706 92.6987 576.151 91.7173 575.213 90.992C574.317 90.2667 573.122 89.904 571.629 89.904C570.349 89.904 569.367 90.16 568.685 90.672C568.002 91.1413 567.661 91.8027 567.661 92.656C567.661 93.68 568.194 94.448 569.261 94.96C570.37 95.472 572.077 95.984 574.381 96.496C577.026 97.1787 579.181 97.8613 580.845 98.544C582.509 99.184 583.959 100.251 585.197 101.744C586.477 103.195 587.138 105.157 587.181 107.632C587.181 109.723 586.583 111.6 585.389 113.264C584.237 114.885 582.551 116.165 580.333 117.104C578.157 118.043 575.618 118.512 572.717 118.512ZM613.78 108.72V118H608.212C604.244 118 601.151 117.04 598.932 115.12C596.714 113.157 595.604 109.979 595.604 105.584V91.376H591.252V82.288H595.604V73.584H606.548V82.288H613.716V91.376H606.548V105.712C606.548 106.779 606.804 107.547 607.316 108.016C607.828 108.485 608.682 108.72 609.876 108.72H613.78ZM630.82 88.24C632.1 86.2773 633.7 84.7413 635.62 83.632C637.54 82.48 639.674 81.904 642.02 81.904V93.488H639.012C636.282 93.488 634.234 94.0853 632.868 95.28C631.503 96.432 630.82 98.48 630.82 101.424V118H619.876V82.288H630.82V88.24ZM645.075 100.08C645.075 96.4107 645.758 93.1893 647.123 90.416C648.531 87.6427 650.43 85.5093 652.819 84.016C655.209 82.5227 657.875 81.776 660.819 81.776C663.337 81.776 665.534 82.288 667.411 83.312C669.331 84.336 670.803 85.68 671.827 87.344V82.288H682.771V118H671.827V112.944C670.761 114.608 669.267 115.952 667.347 116.976C665.47 118 663.273 118.512 660.755 118.512C657.854 118.512 655.209 117.765 652.819 116.272C650.43 114.736 648.531 112.581 647.123 109.808C645.758 106.992 645.075 103.749 645.075 100.08ZM671.827 100.144C671.827 97.4133 671.059 95.2587 669.523 93.68C668.03 92.1013 666.195 91.312 664.019 91.312C661.843 91.312 659.987 92.1013 658.451 93.68C656.958 95.216 656.211 97.3493 656.211 100.08C656.211 102.811 656.958 104.987 658.451 106.608C659.987 108.187 661.843 108.976 664.019 108.976C666.195 108.976 668.03 108.187 669.523 106.608C671.059 105.029 671.827 102.875 671.827 100.144Z" fill="#004AAD"/>
<defs>
<radialGradient id="paint0_radial_2665_107580" cx="0" cy="0" r="1" gradientUnits="userSpaceOnUse" gradientTransform="translate(92.7841 95.9925) scale(79.9843 79.9843)">
<stop stop-color="white"/>
<stop offset="1" stop-color="#AAECCF"/>
</radialGradient>
<linearGradient id="paint1_linear_2665_107580" x1="64.0263" y1="85.7077" x2="64.0263" y2="127.587" gradientUnits="userSpaceOnUse">
<stop stop-color="#01B868"/>
<stop offset="1" stop-color="#006695"/>
</linearGradient>
<linearGradient id="paint2_linear_2665_107580" x1="83.4461" y1="81.354" x2="83.4461" y2="134.439" gradientUnits="userSpaceOnUse">
<stop stop-color="#01B868"/>
<stop offset="1" stop-color="#006695"/>
</linearGradient>
<linearGradient id="paint3_linear_2665_107580" x1="102.984" y1="72.8759" x2="102.984" y2="134.39" gradientUnits="userSpaceOnUse">
<stop stop-color="#01B868"/>
<stop offset="1" stop-color="#006695"/>
</linearGradient>
<linearGradient id="paint4_linear_2665_107580" x1="122.061" y1="120.57" x2="122.061" y2="73.3323" gradientUnits="userSpaceOnUse">
<stop stop-color="#006695"/>
<stop offset="1" stop-color="#01B868"/>
</linearGradient>
<radialGradient id="paint5_radial_2665_107580" cx="0" cy="0" r="1" gradientUnits="userSpaceOnUse" gradientTransform="translate(88.518 107.472) scale(48.0399 35.6749)">
<stop stop-color="white"/>
<stop offset="1" stop-color="#AAECCF"/>
</radialGradient>
<radialGradient id="paint6_radial_2665_107580" cx="0" cy="0" r="1" gradientUnits="userSpaceOnUse" gradientTransform="translate(108.113 102.167) scale(40.0153)">
<stop stop-color="white"/>
<stop offset="1" stop-color="#AAECCF"/>
</radialGradient>
<radialGradient id="paint7_radial_2665_107580" cx="0" cy="0" r="1" gradientUnits="userSpaceOnUse" gradientTransform="translate(116.417 95.2645) scale(43.5741 43.5742)">
<stop stop-color="white"/>
<stop offset="1" stop-color="#AAECCF"/>
</radialGradient>
<radialGradient id="paint8_radial_2665_107580" cx="0" cy="0" r="1" gradientUnits="userSpaceOnUse" gradientTransform="translate(127.706 89.5937) scale(35.8354)">
<stop stop-color="white"/>
<stop offset="1" stop-color="#AAECCF"/>
</radialGradient>
<radialGradient id="paint9_radial_2665_107580" cx="0" cy="0" r="1" gradientUnits="userSpaceOnUse" gradientTransform="translate(69.3862 106.348) scale(28.2118 28.2119)">
<stop stop-color="white"/>
<stop offset="1" stop-color="#AAECCF"/>
</radialGradient>
<radialGradient id="paint10_radial_2665_107580" cx="0" cy="0" r="1" gradientUnits="userSpaceOnUse" gradientTransform="translate(97.8542 103.233) scale(48.0399 41.465)">
<stop stop-color="white"/>
<stop offset="1" stop-color="#AAECCF"/>
</radialGradient>
<linearGradient id="paint11_linear_2665_107580" x1="51.3624" y1="81.5147" x2="141.598" y2="81.5147" gradientUnits="userSpaceOnUse">
<stop stop-color="#000D12"/>
<stop offset="1" stop-color="#004CAA"/>
</linearGradient>
<radialGradient id="paint12_radial_2665_107580" cx="0" cy="0" r="1" gradientUnits="userSpaceOnUse" gradientTransform="translate(78.3743 106.55) scale(34.2673 34.2673)">
<stop stop-color="white"/>
<stop offset="1" stop-color="#AAECCF"/>
</radialGradient>
<radialGradient id="paint13_radial_2665_107580" cx="0" cy="0" r="1" gradientUnits="userSpaceOnUse" gradientTransform="translate(58.6283 100.889) scale(20.7687)">
<stop stop-color="white"/>
<stop offset="1" stop-color="#AAECCF"/>
</radialGradient>
</defs>
</svg>
