<svg width="19" height="18" viewBox="0 0 19 18" fill="none" xmlns="http://www.w3.org/2000/svg">
<rect x="0.833984" y="0.25" width="17.5" height="17.5" rx="1.75" stroke="#333333" stroke-width="0.5"/>
<path d="M14.9259 6.35532C14.9918 6.30861 15.0137 6.2152 14.9918 6.14515V6.1218C14.838 5.32779 14.4206 4.6272 13.8055 4.13679C13.7396 4.09008 13.6737 4.06673 13.5859 4.11345C12.817 4.39368 12.202 4.39368 11.7187 4.0901C10.9498 3.59969 10.818 2.43204 10.818 2.43204C10.818 2.33864 10.7521 2.26858 10.6643 2.24521C9.9174 1.91826 9.08265 1.91826 8.31379 2.24521C8.24789 2.26856 8.18199 2.33861 8.18199 2.43204C8.18199 2.43204 8.05019 3.57632 7.28133 4.0901C6.79807 4.41705 6.16101 4.41705 5.39216 4.11345C5.32626 4.06673 5.26036 4.0901 5.19445 4.13679C4.57939 4.6272 4.16202 5.32779 4.00823 6.12177V6.14512C4.00823 6.21518 4.03019 6.30858 4.07414 6.35529C4.73315 7.05588 5.1066 8.10676 5.1066 9.22769C5.1066 10.3486 4.73315 11.3995 4.07414 12.1001C4.00823 12.1468 3.98628 12.2402 4.00823 12.3103V12.3336C4.16199 13.1276 4.57939 13.8282 5.19445 14.3186C5.26036 14.3653 5.32626 14.3887 5.39216 14.3653C5.52396 14.3186 8.29181 13.3144 9.30228 15.8599C9.32424 15.9533 9.41213 16 9.49999 16C9.58785 16 9.67573 15.9533 9.69769 15.8365C10.7302 13.3144 13.498 14.2953 13.6078 14.342C13.6737 14.3887 13.7396 14.3653 13.8055 14.3186C14.4206 13.8282 14.838 13.1276 14.9917 12.3336V12.3103C14.9917 12.2402 14.9698 12.1468 14.9258 12.1001C13.5639 10.6522 13.5639 7.80318 14.9259 6.35532ZM13.6298 13.8516C13.0586 13.6881 10.6642 13.1043 9.49999 15.2294C8.79703 13.9684 7.65476 13.6648 6.73214 13.6648C6.11707 13.6648 5.58986 13.8049 5.37017 13.875C4.93082 13.4779 4.60132 12.9409 4.46952 12.3337C5.15049 11.563 5.54589 10.4421 5.54589 9.22775C5.54589 8.01341 5.15049 6.89247 4.46952 6.09846C4.60132 5.49127 4.93082 4.95418 5.37017 4.55717C6.22689 4.86075 6.9518 4.8374 7.52295 4.46377C8.29181 3.94996 8.53345 2.96914 8.59936 2.5955C9.19247 2.38533 9.80754 2.38533 10.4006 2.5955C10.4665 2.96914 10.7082 3.94996 11.477 4.46374C12.0482 4.83738 12.7731 4.86075 13.6298 4.55714C14.0911 4.95415 14.3987 5.49125 14.5305 6.09843C13.1026 7.73312 13.1026 10.6756 14.5305 12.3103C14.3987 12.9175 14.0911 13.4546 13.6298 13.8516Z" fill="#333333"/>
<path d="M9.78558 13.548C9.69772 13.6414 9.58787 13.7114 9.50001 13.8049C9.41215 13.7115 9.30231 13.618 9.21445 13.548C9.10461 13.4779 8.9728 13.5013 8.9069 13.5947C8.841 13.6881 8.86296 13.8516 8.95084 13.9216C9.10461 14.015 9.21445 14.1318 9.34625 14.2719C9.39019 14.3187 9.43411 14.342 9.50001 14.342C9.56591 14.342 9.60986 14.3187 9.65377 14.2719C9.78558 14.1552 9.91738 14.0384 10.0492 13.9216C10.137 13.8516 10.159 13.6881 10.0931 13.5947C10.0272 13.5013 9.87344 13.4779 9.78558 13.548Z" fill="#333333"/>
<path d="M8.18199 12.9875C7.89643 12.8707 7.56692 12.8007 7.23742 12.7773C7.10561 12.7773 7.01775 12.8707 6.99577 12.9875C6.97381 13.1276 7.08363 13.221 7.19347 13.2444C7.50102 13.2677 7.78658 13.3378 8.05019 13.4312C8.07215 13.4312 8.09413 13.4312 8.11609 13.4312C8.20395 13.4312 8.29183 13.3612 8.31379 13.2911C8.35771 13.151 8.29181 13.0342 8.18199 12.9875Z" fill="#333333"/>
<path d="M6.09511 12.7773C5.94135 12.8007 5.78756 12.824 5.65576 12.8474C5.5679 12.7306 5.502 12.6372 5.45806 12.5204C5.54592 12.4037 5.6338 12.2636 5.72166 12.1234C5.76561 12.0067 5.74362 11.8665 5.6338 11.7965C5.52396 11.7498 5.39216 11.7731 5.32626 11.8899C5.2384 12.0534 5.15051 12.2168 5.04069 12.357C4.99675 12.427 4.99675 12.5204 5.01874 12.5905C5.10659 12.8474 5.2384 13.0575 5.41414 13.2677C5.4361 13.3144 5.502 13.3378 5.5679 13.3378C5.5679 13.3378 5.58986 13.3378 5.61185 13.3378C5.78759 13.2911 5.96331 13.2677 6.13905 13.2444C6.27086 13.221 6.35872 13.1043 6.33676 12.9875C6.31477 12.8474 6.22691 12.754 6.09511 12.7773Z" fill="#333333"/>
<path d="M6.18297 7.54632C6.16101 7.4062 6.02921 7.33614 5.91937 7.38286C5.78756 7.4062 5.72166 7.54632 5.76561 7.66309C5.85347 7.96667 5.89741 8.29362 5.94135 8.62057C5.96331 8.73734 6.0512 8.83074 6.16101 8.83074C6.16101 8.83074 6.18297 8.83074 6.18297 8.85408C6.31477 8.83074 6.40263 8.71397 6.38068 8.59719C6.33676 8.2469 6.27086 7.89661 6.18297 7.54632Z" fill="#333333"/>
<path d="M6.16101 9.6247C6.02921 9.60136 5.94135 9.7181 5.91937 9.83488C5.89741 10.1852 5.83151 10.5121 5.74362 10.8157C5.72166 10.9325 5.78756 11.0492 5.89738 11.0959C5.91934 11.0959 5.94133 11.0959 5.96328 11.0959C6.07313 11.0959 6.16099 11.0259 6.16099 10.9325C6.24885 10.6055 6.31475 10.2319 6.35869 9.88159C6.35872 9.74147 6.27086 9.64807 6.16101 9.6247Z" fill="#333333"/>
<path d="M5.69971 6.33195C5.6338 6.19183 5.54594 6.05172 5.45806 5.93494C5.502 5.81817 5.5679 5.72477 5.6338 5.63136C5.78756 5.65471 5.94135 5.67808 6.07315 5.70142C6.183 5.70142 6.29282 5.60802 6.3148 5.49125C6.3148 5.37447 6.22694 5.25773 6.09514 5.23436C5.94138 5.21101 5.76563 5.18764 5.58989 5.14095C5.50203 5.11761 5.41414 5.14095 5.37023 5.21101C5.21646 5.39785 5.08466 5.63136 4.99678 5.86488C4.95283 5.93494 4.97482 6.02834 5.01874 6.0984C5.12858 6.23852 5.21644 6.40198 5.3043 6.56547C5.34824 6.63553 5.4361 6.68224 5.502 6.68224C5.54594 6.68224 5.58986 6.68224 5.61185 6.6589C5.72166 6.58884 5.76561 6.44872 5.69971 6.33195Z" fill="#333333"/>
<path d="M8.05019 4.6272C7.80854 4.83738 7.54494 5.02421 7.23742 5.11761C7.12757 5.16433 7.06167 5.30444 7.10561 5.42119C7.14956 5.51459 7.23742 5.58465 7.32528 5.58465C7.34723 5.58465 7.36922 5.58465 7.36922 5.58465C7.72068 5.44453 8.05019 5.2577 8.33578 4.97747C8.42364 4.88406 8.44562 4.74395 8.35774 4.65052C8.26985 4.55714 8.13805 4.5338 8.05019 4.6272Z" fill="#333333"/>
<path d="M10.0492 3.13263C10.0272 3.03923 9.96132 2.99251 9.87344 2.96917C9.63179 2.92245 9.36818 2.92245 9.10458 2.96917C9.01672 2.99251 8.95082 3.03923 8.92883 3.13263C8.88489 3.31946 8.81899 3.48292 8.75309 3.64638C8.70915 3.76316 8.75309 3.90327 8.86293 3.94996C8.88489 3.9733 8.92884 3.9733 8.95079 3.9733C9.03865 3.9733 9.10455 3.92659 9.10455 3.83319C9.17046 3.69307 9.23636 3.52961 9.2803 3.38949C9.4121 3.36615 9.52195 3.36615 9.65375 3.38949C9.71965 3.55295 9.76359 3.69307 9.82949 3.83319C9.87344 3.94996 10.0052 3.99665 10.1151 3.94996C10.2249 3.90327 10.2688 3.76313 10.2249 3.64638C10.159 3.48292 10.0931 3.31943 10.0492 3.13263Z" fill="#333333"/>
<path d="M11.6748 5.58468C11.7626 5.58468 11.8505 5.51462 11.8725 5.42122C11.9164 5.2811 11.8505 5.16433 11.7407 5.11764C11.4331 5.02424 11.1695 4.86075 10.9279 4.62723C10.84 4.55717 10.7082 4.55717 10.6203 4.65057C10.5544 4.74397 10.5544 4.88409 10.6423 4.97752C10.9279 5.25776 11.2574 5.46793 11.6088 5.5847C11.6308 5.58468 11.6528 5.58468 11.6748 5.58468Z" fill="#333333"/>
<path d="M12.9269 5.70142C13.0806 5.70142 13.2124 5.65471 13.3662 5.63136C13.4321 5.72477 13.498 5.8182 13.542 5.93494C13.4541 6.05172 13.3662 6.19183 13.3003 6.33195C13.2564 6.44872 13.2784 6.58884 13.3882 6.6589C13.4321 6.68224 13.4541 6.68224 13.498 6.68224C13.5639 6.68224 13.6298 6.63553 13.6738 6.56547C13.7616 6.40201 13.8495 6.23852 13.9593 6.0984C14.0033 6.02834 14.0033 5.93494 13.9813 5.86488C13.8934 5.63136 13.7616 5.39782 13.6078 5.21101C13.5419 5.14095 13.476 5.11761 13.3882 5.14095C13.2124 5.18767 13.0587 5.21101 12.8829 5.23436C12.7511 5.2577 12.6633 5.37447 12.6852 5.49125C12.7072 5.63136 12.7951 5.72479 12.9269 5.70142Z" fill="#333333"/>
<path d="M12.817 8.83071H12.839C12.9488 8.83071 13.0367 8.76066 13.0586 8.62054C13.0806 8.27025 13.1465 7.9433 13.2344 7.63972C13.2564 7.52295 13.1905 7.38283 13.0806 7.35948C12.9708 7.33614 12.861 7.4062 12.817 7.52295C12.7292 7.84989 12.6633 8.22353 12.6193 8.57382C12.6193 8.6906 12.7072 8.80737 12.817 8.83071Z" fill="#333333"/>
<path d="M13.0367 11.0959C13.0586 11.0959 13.0806 11.0959 13.0806 11.0959C13.2124 11.0726 13.2783 10.9325 13.2344 10.8157C13.1465 10.4887 13.1026 10.1618 13.0586 9.83488C13.0367 9.69476 12.9488 9.60136 12.817 9.6247C12.6852 9.64805 12.5973 9.76482 12.6193 9.88159C12.6632 10.2319 12.7291 10.5822 12.817 10.9325C12.861 11.0259 12.9488 11.0959 13.0367 11.0959Z" fill="#333333"/>
<path d="M13.3003 12.1235C13.3662 12.2636 13.4541 12.4037 13.5419 12.5205C13.476 12.6372 13.4101 12.754 13.3442 12.8474C13.1905 12.8241 13.0587 12.8007 12.9049 12.7774C12.7731 12.7774 12.6852 12.8708 12.6632 12.9875C12.6632 13.1043 12.7511 13.2211 12.8609 13.2444C13.0367 13.2678 13.2124 13.2911 13.3882 13.3378C13.4101 13.3378 13.4101 13.3378 13.4321 13.3378C13.498 13.3378 13.5639 13.3145 13.6078 13.2678C13.7836 13.0576 13.9154 12.8474 14.0032 12.5905C14.0472 12.5205 14.0252 12.4271 13.9813 12.357C13.8714 12.2169 13.7836 12.0534 13.6957 11.8899C13.6298 11.7732 13.498 11.7265 13.3882 11.7965C13.2783 11.8666 13.2344 12.0067 13.3003 12.1235Z" fill="#333333"/>
<path d="M11.7626 12.754C11.4331 12.8007 11.1256 12.8708 10.818 12.9642C10.7082 13.0109 10.6423 13.151 10.6862 13.2677C10.7302 13.3611 10.818 13.4312 10.9059 13.4312C10.9279 13.4312 10.9498 13.4079 10.9498 13.4079C11.2134 13.3145 11.499 13.2444 11.8066 13.221C11.9384 13.1977 12.0262 13.0809 12.0043 12.9641C11.9823 12.8241 11.8944 12.754 11.7626 12.754Z" fill="#333333"/>
</svg>
